<svg width="10" height="6" viewBox="0 0 10 6" fill="none" xmlns="http://www.w3.org/2000/svg">
<path d="M5.76259 1.76726C5.76259 1.58381 5.82397 1.40036 5.88534 1.21692C5.94671 1.03347 6.06945 0.85001 6.19219 0.727712C6.31494 0.605413 6.49904 0.48313 6.68316 0.360831C6.86727 0.299682 7.11276 0.238525 7.35824 0.238525C7.6651 0.238525 7.91057 0.299667 8.15606 0.421966C8.40154 0.544264 8.64703 0.66657 8.83114 0.850017C9.01526 1.03347 9.07663 1.21691 9.19937 1.46151C9.26074 1.70611 9.32212 1.9507 9.32212 2.25644C9.32212 2.80678 9.19938 3.23484 9.01527 3.72404C8.83115 4.15208 8.58566 4.58012 8.21743 4.88587C8.09469 5.00817 7.91058 5.1916 7.72647 5.3139C7.54236 5.4362 7.35825 5.5585 7.17414 5.61965C6.99002 5.6808 6.86727 5.80311 6.74453 5.86426C6.62179 5.92541 6.56042 5.9254 6.49905 5.98655L5.63986 4.76356C5.7626 4.70241 5.94671 4.64127 6.13082 4.51897C6.31493 4.45782 6.49904 4.33552 6.68316 4.21322C6.86727 4.09093 6.99002 3.90749 7.11276 3.72404C7.2355 3.54059 7.29687 3.35714 7.29687 3.11255C6.86727 3.11255 6.56042 2.99024 6.25357 2.74565C5.94671 2.5622 5.76259 2.1953 5.76259 1.76726ZM0.975655 1.76726C0.975655 1.58381 1.03701 1.40036 1.09839 1.21692C1.15976 1.03347 1.2825 0.85001 1.40524 0.727712C1.52798 0.605413 1.71211 0.48313 1.89622 0.360831C2.08033 0.299682 2.32582 0.238525 2.57131 0.238525C2.87816 0.238525 3.12364 0.299667 3.36912 0.421966C3.61461 0.544264 3.86009 0.66657 4.04421 0.850017C4.16695 1.03347 4.2897 1.21691 4.41244 1.46151C4.47381 1.70611 4.53517 1.9507 4.53517 2.25644C4.53517 2.80678 4.41243 3.23484 4.22831 3.72404C4.0442 4.15208 3.79872 4.58012 3.4305 4.88587C3.30775 5.00817 3.12363 5.1916 2.93952 5.3139C2.7554 5.4362 2.57129 5.5585 2.38718 5.61965C2.20307 5.6808 2.08034 5.80311 1.9576 5.86426C1.83485 5.92541 1.77347 5.9254 1.7121 5.98655L0.852905 4.76356C1.03702 4.70241 1.15977 4.64127 1.34388 4.51897C1.528 4.45782 1.71211 4.33552 1.89622 4.21322C2.08033 4.09093 2.20306 3.90749 2.32581 3.72404C2.44855 3.54059 2.50993 3.35714 2.50993 3.11255C2.08033 3.11255 1.77347 2.99024 1.46662 2.74565C1.09839 2.5622 0.975655 2.1953 0.975655 1.76726Z" fill="white"/>
</svg>
